<?xml version="1.0" encoding="iso-8859-1"?>
<!-- Generator: Adobe Illustrator 16.0.0, SVG Export Plug-In . SVG Version: 6.00 Build 0)  -->
<!DOCTYPE svg PUBLIC "-//W3C//DTD SVG 1.1//EN" "http://www.w3.org/Graphics/SVG/1.1/DTD/svg11.dtd">
<svg version="1.1" id="Capa_1" xmlns="http://www.w3.org/2000/svg" xmlns:xlink="http://www.w3.org/1999/xlink" x="0px" y="0px"
	 width="530px" height="530px" viewBox="0 0 530 530" style="enable-background:new 0 0 530 530;" xml:space="preserve">
<g>
	<g>
		<path d="M395.9,301.2C383.2,322.8,368.5,341.1,349,351c-17,8.7-31.899,16.6-43.8,23c0,1.6,0,3.1,0,4.8
			c0,16.601-13.6,30.2-30.2,30.2c-16.6,0-30.2-13.6-30.2-30.2c0,0-0.2-3.5-0.1-5.1c-26.8-13-43-22.4-43-22.4
			c-19.7-10.1-45.3-31.399-54.9-51C86.2,323.9,33.2,380.3,33.2,429.4V530h463.6c0,0,0-49.5,0-100.6
			C496.8,381,455.4,325.4,395.9,301.2z M275.101,476.4C262.9,476.4,253,466.5,253,454.3s9.9-22.1,22.101-22.1
			c12.199,0,22.1,9.899,22.1,22.1C297.2,466.6,287.3,476.4,275.101,476.4z"/>
		<path d="M406.9,121.1C392.9,48.2,340.8,0,275.2,0c-65.6,0-117.7,48.2-131.7,121.1c-0.3,0.1-0.8,0.2-1.1,0.2
			c-22.2,5.5-34,32.6-26.7,61.6c5,19.8,17.9,35.2,33.2,40.4c17.9,58.9,64.1,120,126.399,120c62.301,0,108.5-61.2,126.4-120.2
			c15.3-5.3,28.2-20.7,33.2-40.4c7.2-29-4.4-56.1-26.601-61.6C407.601,121.3,407.3,121.2,406.9,121.1z M414.4,177.9
			c-4,16-14.4,25.4-22.601,26.5l-6.899,0.9l-1.8,6.7c-14.9,54.9-56.9,110.6-107.9,110.6s-93-55.6-108-110.6l-1.8-6.7l-6.9-0.9
			c-8.3-1.1-18.7-10.5-22.6-26.5c-4.2-16.6,1.1-33.6,11.4-36.2c0.7-0.1,1.4-0.2,2.3-0.2c0.6,0,1.1,0,1.7,0.1l9.9,0.9l1.5-9.9
			c10-66.8,55.2-111.7,112.5-111.7s102.5,44.8,112.5,111.7l1.5,9.9l9.9-0.9c1.5-0.1,2.8-0.1,4,0.1
			C413.101,144.3,418.601,161.2,414.4,177.9z"/>
		<path d="M306,233.5c-8.8,10.6-20.399,16.5-32.6,16.5s-23.8-5.9-32.6-16.5c-3.5-4.3-9.9-4.9-14.2-1.4c-4.3,3.5-4.9,9.9-1.4,14.2
			c12.7,15.4,29.8,23.8,48.1,23.8c18.2,0,35.301-8.5,48.101-23.8c3.5-4.3,2.899-10.6-1.4-14.2C316,228.6,309.5,229.3,306,233.5z"/>
	</g>
</g>
<g>
</g>
<g>
</g>
<g>
</g>
<g>
</g>
<g>
</g>
<g>
</g>
<g>
</g>
<g>
</g>
<g>
</g>
<g>
</g>
<g>
</g>
<g>
</g>
<g>
</g>
<g>
</g>
<g>
</g>
</svg>
